<svg width="148" height="48" viewBox="0 0 148 48" fill="none" xmlns="http://www.w3.org/2000/svg">
<path d="M25.9161 13.1205V3.6378C25.9161 0.857522 22.8876 -0.929792 20.4549 0.509993C14.6957 3.83639 5.85844 8.95012 1.98591 11.1843C0.744717 11.8793 0 13.1702 0 14.61C0 19.1279 0 29.3057 0 35.9585C0 38.7388 3.02851 40.5261 5.46125 39.0863L12.9581 34.767L22.0933 29.405C24.4763 28.0148 25.9658 25.4828 25.9658 22.7025L25.9161 13.1205Z" fill="#FDC651"/>
<path d="M33.4634 8.80103L25.9666 13.1204C22.3423 15.2056 18.9662 17.1915 16.3846 18.6809C14.0511 20.0214 12.6113 22.5038 12.6113 25.1848L12.9589 34.7668V44.2992C12.9589 47.0795 15.9874 48.8668 18.4201 47.427L36.7401 36.852C38.0806 36.1073 38.875 34.6675 38.875 33.1284V11.9785C38.875 9.14856 35.8465 7.36124 33.4634 8.80103Z" fill="#9457F6"/>
<path d="M25.9666 22.7024C25.9666 25.4826 24.4771 28.0147 22.0941 29.4048L12.9589 34.7668L12.6113 25.1848C12.6113 22.5038 14.0511 20.0214 16.3846 18.6809C18.9662 17.1915 22.2926 15.2552 25.9666 13.1204V22.7024Z" fill="#976B7A"/>
<path d="M44.5332 24.142V7.51001H55.7536V10.6378H48.2568V13.9146H54.9096V16.9927H48.2568V21.0142H56.2997V24.142H44.5332Z" fill="#070707"/>
<path d="M70.2012 24.1426C69.1089 22.256 67.967 20.3693 66.7258 18.4827C65.4846 16.6458 64.1441 14.8584 62.754 13.2201V24.0929H59.0801V7.46094H62.1086C62.6547 8.00706 63.2008 8.65248 63.8463 9.3972C64.4917 10.1419 65.1371 10.9859 65.7825 11.8796C66.4279 12.7732 67.123 13.6669 67.7684 14.6102C68.4139 15.5535 69.0593 16.4472 69.6054 17.2912V7.46094H73.329V24.0929H70.2012V24.1426Z" fill="#070707"/>
<path d="M91.748 15.8013C91.748 17.2411 91.4997 18.4823 91.0529 19.5745C90.6061 20.6668 89.9607 21.5108 89.1663 22.2555C88.3223 22.9506 87.3293 23.4967 86.1378 23.8442C84.9462 24.1918 83.6057 24.3904 82.1659 24.3904C81.4709 24.3904 80.7262 24.3407 79.8325 24.2911C78.9388 24.2414 78.0452 24.1421 77.2012 23.9435V7.75835C78.0452 7.60941 78.9885 7.51012 79.8821 7.41083C80.8255 7.36118 81.6198 7.31152 82.3149 7.31152C83.7547 7.31152 85.0455 7.46047 86.1874 7.808C87.3293 8.15554 88.3223 8.65201 89.1663 9.29743C90.0103 9.9925 90.6557 10.8862 91.1025 11.9288C91.5494 13.021 91.748 14.3119 91.748 15.8013ZM80.9248 21.064C81.1233 21.064 81.3219 21.1136 81.5205 21.1136C81.7688 21.1136 82.017 21.1136 82.3645 21.1136C84.2512 21.1136 85.6413 20.6171 86.5349 19.6738C87.4286 18.7305 87.8754 17.4397 87.8754 15.7516C87.8754 14.014 87.4286 12.6735 86.5846 11.7798C85.7406 10.8862 84.3505 10.4393 82.4638 10.4393C82.2156 10.4393 81.9674 10.4393 81.6695 10.4393C81.4212 10.4393 81.1233 10.489 80.9248 10.489V21.064Z" fill="#070707"/>
<path d="M105.998 20.9147V24.1418H94.877V7.50977H98.6005V20.9147H105.998Z" fill="#070707"/>
<path d="M108.381 24.1418V7.50977H119.601V10.6376H112.104V13.9143H118.757V16.9925H112.104V21.014H120.147V24.1418H108.381Z" fill="#070707"/>
<path d="M127.444 21.2629C127.99 21.2629 128.387 21.2133 128.735 21.114C129.083 21.0147 129.331 20.9154 129.579 20.7664C129.778 20.6175 129.927 20.4189 130.026 20.2203C130.125 20.0217 130.125 19.7735 130.125 19.5252C130.125 18.9791 129.877 18.5323 129.38 18.1847C128.884 17.8372 127.99 17.44 126.749 17.0428C126.203 16.8442 125.657 16.6457 125.111 16.3974C124.565 16.1492 124.068 15.8513 123.671 15.4541C123.224 15.0569 122.877 14.6101 122.628 14.064C122.38 13.5178 122.231 12.8724 122.231 12.1277C122.231 11.383 122.38 10.6879 122.678 10.0425C122.976 9.44672 123.373 8.90061 123.919 8.45378C124.465 8.00695 125.111 7.70906 125.855 7.46082C126.6 7.21258 127.444 7.11328 128.387 7.11328C129.529 7.11328 130.473 7.21258 131.267 7.46082C132.061 7.70906 132.756 7.95729 133.303 8.25517L132.21 11.1844C131.764 10.9362 131.217 10.7376 130.671 10.539C130.125 10.3404 129.43 10.2411 128.636 10.2411C127.742 10.2411 127.097 10.3404 126.699 10.5886C126.302 10.8369 126.104 11.234 126.104 11.7305C126.104 12.0284 126.153 12.2766 126.302 12.4752C126.451 12.6738 126.65 12.8724 126.898 13.0214C127.146 13.1703 127.444 13.3192 127.792 13.4682C128.139 13.6171 128.536 13.7661 128.934 13.8654C129.778 14.1633 130.572 14.5108 131.168 14.8087C131.813 15.1066 132.359 15.5038 132.756 15.9009C133.203 16.2981 133.501 16.7946 133.7 17.3407C133.898 17.8869 133.998 18.5819 133.998 19.3763C133.998 20.9154 133.452 22.1069 132.359 23.0006C131.267 23.8446 129.629 24.2914 127.444 24.2914C126.699 24.2914 126.054 24.2418 125.458 24.1425C124.863 24.0432 124.366 23.9439 123.87 23.7949C123.423 23.646 123.026 23.5467 122.678 23.3977C122.33 23.2488 122.082 23.0999 121.834 23.0006L122.877 20.0217C123.373 20.2699 123.969 20.5182 124.714 20.7664C125.508 21.1636 126.402 21.2629 127.444 21.2629Z" fill="#070707"/>
<path d="M141.446 21.2629C141.992 21.2629 142.389 21.2133 142.737 21.114C143.085 21.0147 143.333 20.9154 143.581 20.7664C143.78 20.6175 143.929 20.4189 144.028 20.2203C144.127 20.0217 144.127 19.7735 144.127 19.5252C144.127 18.9791 143.879 18.5323 143.382 18.1847C142.886 17.8372 141.992 17.44 140.751 17.0428C140.205 16.8442 139.659 16.6457 139.113 16.3974C138.567 16.1492 138.07 15.8513 137.673 15.4541C137.226 15.0569 136.879 14.6101 136.63 14.064C136.382 13.5178 136.233 12.8724 136.233 12.1277C136.233 11.383 136.382 10.6879 136.68 10.0425C136.978 9.44672 137.375 8.90061 137.921 8.45378C138.467 8.00695 139.113 7.70906 139.857 7.46082C140.602 7.21258 141.446 7.11328 142.389 7.11328C143.531 7.11328 144.475 7.21258 145.269 7.46082C146.063 7.70906 146.758 7.95729 147.305 8.25517L146.212 11.1844C145.765 10.9362 145.219 10.7376 144.673 10.539C144.127 10.3404 143.432 10.2411 142.638 10.2411C141.744 10.2411 141.099 10.3404 140.701 10.5886C140.304 10.8369 140.106 11.234 140.106 11.7305C140.106 12.0284 140.155 12.2766 140.304 12.4752C140.453 12.6738 140.652 12.8724 140.9 13.0214C141.148 13.1703 141.446 13.3192 141.794 13.4682C142.141 13.6171 142.538 13.7661 142.936 13.8654C143.78 14.1633 144.574 14.5108 145.17 14.8087C145.815 15.1066 146.361 15.5038 146.758 15.9009C147.205 16.2981 147.503 16.7946 147.702 17.3407C147.9 17.8869 148 18.5819 148 19.3763C148 20.9154 147.454 22.1069 146.361 23.0006C145.269 23.8446 143.631 24.2914 141.446 24.2914C140.701 24.2914 140.056 24.2418 139.46 24.1425C138.864 24.0432 138.368 23.9439 137.871 23.7949C137.425 23.646 137.027 23.5467 136.68 23.3977C136.332 23.2488 136.084 23.0999 135.836 23.0006L136.879 20.0217C137.375 20.2699 137.971 20.5182 138.716 20.7664C139.51 21.1636 140.354 21.2629 141.446 21.2629Z" fill="#070707"/>
<path d="M54.3638 34.5186C54.3638 35.5612 54.2149 36.5046 53.8674 37.2493C53.5198 38.0436 53.073 38.689 52.4772 39.1855C51.8815 39.682 51.1367 40.0792 50.2927 40.3274C49.4487 40.5757 48.5054 40.7246 47.4628 40.7246C46.9663 40.7246 46.4202 40.7246 45.8244 40.675C45.2286 40.6253 44.6329 40.526 44.0371 40.4267V28.6602C44.5832 28.5113 45.179 28.4616 45.8244 28.412C46.4698 28.3623 47.016 28.3623 47.5125 28.3623C48.5054 28.3623 49.4487 28.4616 50.2927 28.7098C51.1367 28.9581 51.8318 29.3056 52.4772 29.8517C53.073 30.3482 53.5198 30.9936 53.8674 31.788C54.1652 32.5327 54.3638 33.476 54.3638 34.5186ZM46.2713 38.7883C46.4202 38.7883 46.5691 38.7883 46.7677 38.838C46.9663 38.838 47.2642 38.838 47.6117 38.838C49.1012 38.838 50.1934 38.4408 50.9381 37.6961C51.6829 36.9514 52.0304 35.9088 52.0304 34.5186C52.0304 33.1285 51.6829 32.0859 50.9381 31.3412C50.2431 30.5965 49.1012 30.2489 47.6117 30.2489C46.9663 30.2489 46.4698 30.2489 46.2216 30.2986V38.7883H46.2713Z" fill="#070707"/>
<path d="M68.0173 34.5187C68.0173 35.5613 67.8684 36.4549 67.5705 37.2493C67.2726 38.0436 66.8258 38.6891 66.3293 39.2352C65.7832 39.7813 65.1874 40.1785 64.4427 40.4267C63.698 40.675 62.9533 40.8239 62.1589 40.8239C61.3645 40.8239 60.5702 40.675 59.8751 40.4267C59.18 40.1785 58.5346 39.7813 57.9885 39.2352C57.4424 38.6891 57.0452 38.0436 56.6976 37.2493C56.3998 36.4549 56.2012 35.5613 56.2012 34.5187C56.2012 33.476 56.3501 32.5824 56.6976 31.788C57.0452 30.9937 57.4424 30.3482 57.9885 29.8021C58.5346 29.256 59.18 28.8588 59.8751 28.6106C60.5702 28.3623 61.3149 28.2134 62.1093 28.2134C62.9036 28.2134 63.6483 28.3623 64.3434 28.6106C65.0385 28.8588 65.6839 29.3056 66.23 29.8021C66.7761 30.3482 67.1733 30.9937 67.5209 31.788C67.8684 32.5824 68.0173 33.5257 68.0173 34.5187ZM58.5346 34.5187C58.5346 35.1641 58.6339 35.8095 58.7828 36.306C58.9318 36.8521 59.18 37.2989 59.4779 37.6961C59.7758 38.0933 60.173 38.3912 60.6198 38.5898C61.0667 38.7884 61.5631 38.8876 62.1093 38.8876C62.6554 38.8876 63.1519 38.7884 63.5987 38.5898C64.0455 38.3912 64.4427 38.0933 64.7406 37.6961C65.0385 37.2989 65.2867 36.8521 65.4356 36.306C65.5846 35.7598 65.6839 35.1641 65.6839 34.5187C65.6839 33.8732 65.5846 33.2278 65.4356 32.7313C65.2867 32.1852 65.0385 31.7384 64.7406 31.3412C64.4427 30.944 64.0455 30.6461 63.5987 30.4475C63.1519 30.2489 62.6554 30.1496 62.1093 30.1496C61.5631 30.1496 61.0667 30.2489 60.6198 30.4475C60.173 30.6461 59.7758 30.944 59.4779 31.3412C59.18 31.7384 58.9318 32.1852 58.7828 32.7313C58.6339 33.2775 58.5346 33.8732 58.5346 34.5187Z" fill="#070707"/>
<path d="M73.0804 28.5112C73.3287 28.9581 73.6265 29.5042 73.9244 30.1496C74.2223 30.795 74.5698 31.4404 74.8677 32.1852C75.2153 32.8802 75.5132 33.6249 75.8607 34.32C76.1586 35.0647 76.4565 35.7102 76.7544 36.3556C77.0026 35.7598 77.3005 35.0647 77.648 34.32C77.9459 33.5753 78.2934 32.8802 78.5913 32.1852C78.9389 31.4901 79.2368 30.795 79.5346 30.1496C79.8325 29.5042 80.1304 28.9581 80.3786 28.5112H82.3646C82.4638 29.4049 82.5631 30.3482 82.6624 31.3411C82.7617 32.3341 82.861 33.3767 82.9107 34.4193C83.01 35.4619 83.0596 36.5045 83.1093 37.5471C83.1589 38.5897 83.2086 39.6323 83.2582 40.6253H81.0737C81.0241 39.2351 80.9744 37.7457 80.9248 36.2563C80.8751 34.7669 80.7758 33.3271 80.6269 31.9369C80.4779 32.1852 80.329 32.5327 80.1801 32.8802C79.9815 33.2774 79.8325 33.6746 79.6339 34.0718C79.4353 34.5186 79.2368 34.9654 79.0382 35.4123C78.8396 35.8591 78.641 36.3556 78.4424 36.7528C78.2438 37.1996 78.0948 37.5968 77.8963 37.994C77.7473 38.3911 77.5984 38.689 77.4991 38.9869H75.8607C75.7614 38.7387 75.6125 38.3911 75.4635 37.994C75.3146 37.5968 75.116 37.1996 74.9174 36.7528C74.7188 36.3059 74.5202 35.8591 74.3216 35.4123C74.123 34.9654 73.9244 34.5186 73.7258 34.0718C73.5273 33.6249 73.3287 33.2278 73.1797 32.8802C72.9811 32.483 72.8322 32.1852 72.7329 31.9369C72.5839 33.3271 72.4846 34.7669 72.435 36.2563C72.3854 37.7457 72.3357 39.1855 72.2861 40.6253H70.1016C70.1512 39.6323 70.2009 38.5897 70.2505 37.4975C70.3001 36.4052 70.3994 35.3626 70.4491 34.32C70.5484 33.2774 70.598 32.2348 70.6973 31.2419C70.7966 30.2489 70.8959 29.3552 70.9952 28.5112H73.0804Z" fill="#070707"/>
<path d="M93.983 40.6254C93.8341 40.1289 93.6355 39.6821 93.4866 39.1856C93.3376 38.6891 93.139 38.2423 92.9901 37.7458H87.8764C87.7274 38.2423 87.5288 38.7388 87.3799 39.1856C87.2309 39.6821 87.0324 40.1289 86.8834 40.5757H84.5996C85.0464 39.2849 85.4933 38.0933 85.8905 37.0011C86.2876 35.9088 86.6848 34.8662 87.082 33.8733C87.4792 32.8803 87.8764 31.937 88.2239 31.093C88.6211 30.1993 89.0183 29.3553 89.4154 28.4617H91.5006C91.8978 29.3057 92.295 30.1993 92.6922 31.093C93.0894 31.9867 93.4866 32.93 93.8341 33.8733C94.1816 34.8166 94.6285 35.9088 95.0256 37.0011C95.4228 38.0933 95.8697 39.2849 96.3165 40.5757H93.983V40.6254ZM90.4084 30.8448C90.1602 31.4405 89.8126 32.2349 89.5147 33.0789C89.1672 33.9726 88.8197 34.9159 88.4225 35.9585H92.3943C91.9971 34.9159 91.6496 33.9726 91.3021 33.0293C90.9545 32.1853 90.6566 31.4405 90.4084 30.8448Z" fill="#070707"/>
<path d="M97.8555 28.5112H100.04V40.6253H97.8555V28.5112Z" fill="#070707"/>
<path d="M111.161 40.6253C110.763 39.9799 110.317 39.2352 109.82 38.4904C109.324 37.7457 108.827 36.9513 108.281 36.157C107.735 35.3626 107.238 34.6179 106.692 33.9228C106.146 33.1781 105.65 32.5327 105.153 31.9369V40.6253H102.969V28.5112H104.756C105.203 29.0077 105.699 29.6035 106.246 30.2489C106.792 30.944 107.338 31.639 107.884 32.3341C108.43 33.0788 108.926 33.7739 109.473 34.5186C109.969 35.2633 110.416 35.9087 110.813 36.5542V28.5112H112.998V40.6253H111.161Z" fill="#070707"/>
<path d="M118.857 38.987C119.651 38.987 120.247 38.838 120.595 38.5898C120.942 38.3415 121.141 37.9443 121.141 37.4479C121.141 37.15 121.091 36.9017 120.942 36.7032C120.843 36.5046 120.644 36.306 120.396 36.157C120.148 36.0081 119.899 35.8095 119.552 35.6605C119.204 35.5116 118.857 35.3627 118.41 35.2137C118.013 35.0648 117.566 34.9158 117.219 34.7172C116.821 34.5186 116.474 34.3201 116.176 34.0222C115.878 33.7739 115.63 33.4264 115.481 33.0789C115.282 32.6817 115.233 32.2349 115.233 31.7384C115.233 30.6461 115.63 29.8021 116.375 29.1567C117.119 28.5113 118.162 28.2134 119.453 28.2134C120.197 28.2134 120.892 28.3127 121.488 28.4616C122.084 28.6106 122.531 28.8092 122.878 29.0077L122.183 30.7951C121.786 30.5965 121.339 30.3979 120.892 30.2986C120.396 30.1993 119.949 30.1 119.453 30.1C118.857 30.1 118.41 30.1993 118.063 30.4475C117.715 30.6958 117.566 31.0433 117.566 31.4901C117.566 31.7384 117.616 31.9866 117.715 32.1852C117.814 32.3838 117.963 32.5327 118.211 32.6817C118.41 32.8306 118.658 32.9796 118.907 33.0789C119.204 33.2278 119.502 33.3271 119.8 33.4264C120.396 33.625 120.892 33.8732 121.339 34.0718C121.786 34.2704 122.183 34.5683 122.481 34.8165C122.779 35.1144 123.027 35.462 123.176 35.8591C123.325 36.2563 123.424 36.7528 123.424 37.2989C123.424 38.3912 123.027 39.2352 122.283 39.831C121.538 40.4267 120.396 40.7246 118.857 40.7246C118.36 40.7246 117.914 40.675 117.467 40.6253C117.07 40.5757 116.672 40.4764 116.375 40.3771C116.077 40.2778 115.779 40.1785 115.531 40.0792C115.282 39.9799 115.133 39.8806 114.984 39.831L115.63 38.0436C115.928 38.2422 116.375 38.3912 116.921 38.5898C117.467 38.8876 118.112 38.987 118.857 38.987Z" fill="#070707"/>
</svg>
