<svg width="120" height="40" viewBox="0 0 120 40" fill="none" xmlns="http://www.w3.org/2000/svg">
<path d="M61.7357 17.8281C61.7357 20.4693 60.5591 21.4297 59.1863 22.1501L62.1062 28H58.5109L56.0268 22.9141C55.7 22.9141 55.4167 22.9141 55.2206 22.9141C54.6541 22.9141 52.3879 22.9141 51.7124 22.9141V28H48.4004V12.7203H51.7124V12.7422C52.5187 12.7422 54.9373 12.7203 55.8307 12.7203C57.6611 12.7203 61.7357 12.7203 61.7357 17.8281ZM55.5692 19.9454C56.528 19.9454 58.6634 19.9673 58.6634 17.8281C58.6634 15.7108 56.6587 15.7108 55.6346 15.7108C55.0245 15.7108 52.584 15.7108 51.7124 15.7108V19.9454C52.4315 19.9454 55.286 19.9454 55.5692 19.9454Z" fill="white"/>
<path d="M67.0296 28H63.7393V15.8417H67.0296V28ZM67.0296 14.9686H63.7393V12H67.0296V14.9686Z" fill="white"/>
<path d="M75.0757 20.5784C77.843 20.9932 80.9808 21.4734 80.9808 24.3765C80.9808 27.4106 78.8018 28 75.0539 28C72.2866 28 70.3909 27.498 69.4104 26.5157C68.5606 25.6644 67.7606 24.6385 67.7824 24.0055V23.7653H71.9816V23.8745C71.9816 24.9222 72.766 25.4025 74.9668 25.4025C76.296 25.4025 77.5598 25.2278 77.5598 24.4202C77.5598 23.5034 76.3831 23.3288 75.0539 23.176C74.8796 23.1542 74.7053 23.1323 74.531 23.1105C71.0228 22.6521 68.8438 21.8663 68.8438 19.4216C68.8438 17.719 69.8244 15.689 74.531 15.689C79.5862 15.689 80.6539 17.9372 80.6539 19.8145V19.9236H77.2765V19.8145C77.2765 18.854 76.4485 18.3302 74.531 18.3302C72.6789 18.3302 72.2866 19.0068 72.2866 19.3779C72.2866 19.9236 72.6571 20.2292 74.7925 20.5566L75.0757 20.5784Z" fill="white"/>
<path d="M95.034 22.6521H85.2721C85.5118 24.2892 86.4923 25.0969 88.6278 25.0969C90.6106 25.0969 91.5912 24.5512 91.8962 23.7435H95.0993C94.7725 26.3847 92.6371 28 88.6278 28C84.4441 28 82.069 25.9045 82.069 21.8226C82.069 17.8281 84.5095 15.6453 88.6278 15.6453C90.3491 15.6453 91.7437 16.0819 92.7678 16.8022V16.7804C95.1211 18.3956 95.339 20.9713 95.1647 22.6521H95.034ZM88.6278 18.5484C86.7974 18.5484 85.7951 19.2251 85.4029 20.4693H91.8526C91.5912 19.5525 90.981 18.5484 88.6278 18.5484Z" fill="white"/>
<path d="M105.166 28H101.876V15.8417H105.166V28ZM105.166 14.9686H101.876V12H105.166V14.9686Z" fill="white"/>
<path d="M114.705 15.7544C119.87 15.7544 120 20.0982 120 21.8881V28H116.71V21.8881C116.71 20.9277 116.906 18.6139 113.747 18.6139C110.87 18.6139 110.456 20.4475 110.456 22.1064V28H107.144V15.7544H110.456V17.5662H110.609C111.393 16.4748 112.505 15.7544 114.705 15.7544Z" fill="white"/>
<path d="M30.864 9.10889H20.6016V19.4059H30.864V9.10889Z" fill="#8427FD"/>
<path d="M20.5505 19.4059H10.2881V29.703H20.5505V19.4059Z" fill="url(#paint0_linear_5354_219)"/>
<path d="M20.5622 9.10889H10.2998V19.4059H20.5622V9.10889Z" fill="#CC45FF"/>
<path d="M10.2624 9.10889H0C0 9.10889 2.81069 12.3173 4.73267 14.2574C6.80931 16.3536 10.2624 19.4059 10.2624 19.4059V9.10889Z" fill="#41DABE"/>
<path d="M30.864 19.4059H20.6016V29.703H30.864V19.4059Z" fill="#CC45FF"/>
<path d="M30.864 29.7029H20.6016C20.6016 29.7029 23.9897 32.9242 26.1001 35.0495C27.9906 36.9533 30.864 40 30.864 40V29.7029Z" fill="#41DABE"/>
<path fill-rule="evenodd" clip-rule="evenodd" d="M35.6062 6.44554L31.6553 5.23545L35.4547 3.98867L36.8865 0L38.1804 3.86198L41.9998 5.23545L38.0455 6.56261L36.8865 10.3536L35.6062 6.44554Z" fill="#F9F5FF"/>
<defs>
<linearGradient id="paint0_linear_5354_219" x1="10.2881" y1="20.7171" x2="19.1034" y2="27.3742" gradientUnits="userSpaceOnUse">
<stop stop-color="#41DABE"/>
<stop offset="1" stop-color="#B4FF24"/>
</linearGradient>
</defs>
</svg>
