<svg width="362" height="80" viewBox="0 0 362 80" fill="none" xmlns="http://www.w3.org/2000/svg">
<path d="M54.1871 1.50521V48.9192V68.616C54.1871 69.2865 53.3765 69.6223 52.9024 69.1481L38.6029 54.8487C38.4618 54.7075 38.3825 54.5161 38.3825 54.3165V1.50521C38.3825 1.08956 38.7194 0.752603 39.1351 0.752603H53.4345C53.8502 0.752603 54.1871 1.08955 54.1871 1.50521Z" fill="#8B6CFE" stroke="white" stroke-width="1.50521"/>
<path d="M8.05788 3.10172L53.9666 49.0105C54.1078 49.1516 54.1871 49.343 54.1871 49.5426V68.616C54.1871 69.2865 53.3764 69.6223 52.9023 69.1481L6.99354 23.2394C6.8524 23.0982 6.77311 22.9068 6.77311 22.7072V3.63389C6.77311 2.96339 7.58377 2.6276 8.05788 3.10172Z" fill="#78CAE7" stroke="white" stroke-width="1.50521"/>
<path d="M39.1201 54.6381V32.8611L53.4643 47.3356L53.4345 68.4868L39.1201 54.6381Z" fill="#6A62FD"/>
<circle cx="14.8657" cy="61.2886" r="10.4321" fill="white"/>
<circle cx="14.8659" cy="61.2888" r="9.20481" fill="#4BC3FF"/>
<path d="M70.7804 16.0338H75.2573L104.819 53.5237L104.853 53.5579V16.0338H110.218V62.5117H105.673L76.1801 25.1243L76.1459 25.0901V62.5117H70.7804V16.0338ZM146.177 63.4003C141.689 63.4003 137.542 62.3295 133.738 60.1878C129.955 58.0234 126.948 55.0958 124.715 51.4049C122.505 47.6912 121.4 43.6358 121.4 39.2386C121.4 34.7958 122.505 30.729 124.715 27.0381C126.948 23.3244 129.955 20.3968 133.738 18.2552C137.52 16.0907 141.666 15.0085 146.177 15.0085C150.666 15.0085 154.801 16.0907 158.583 18.2552C162.388 20.3968 165.395 23.3244 167.605 27.0381C169.838 30.729 170.954 34.7958 170.954 39.2386C170.954 43.6358 169.838 47.6912 167.605 51.4049C165.395 55.0958 162.388 58.0234 158.583 60.1878C154.801 62.3295 150.666 63.4003 146.177 63.4003ZM146.177 58.4107C149.709 58.4107 152.955 57.5677 155.917 55.8818C158.902 54.1958 161.26 51.8947 162.991 48.9784C164.746 46.0394 165.623 42.7928 165.623 39.2386C165.623 35.6616 164.746 32.4036 162.991 29.4645C161.26 26.5255 158.902 24.213 155.917 22.527C152.955 20.8411 149.709 19.9981 146.177 19.9981C142.646 19.9981 139.388 20.8524 136.403 22.5612C133.441 24.2472 131.095 26.5597 129.363 29.4987C127.632 32.415 126.766 35.6616 126.766 39.2386C126.766 42.7928 127.632 46.0394 129.363 48.9784C131.117 51.8947 133.476 54.1958 136.437 55.8818C139.399 57.5677 142.646 58.4107 146.177 58.4107ZM201.889 16.0338C204.828 16.0338 207.448 16.6375 209.749 17.8451C212.073 19.0526 213.885 20.7499 215.183 22.9371C216.482 25.1243 217.131 27.6419 217.131 30.4898C217.131 32.7453 216.698 34.8072 215.833 36.6755C214.967 38.5209 213.748 40.0702 212.176 41.3232C210.627 42.5535 208.815 43.4307 206.742 43.9547L218.122 62.5117H211.902L201.308 44.7407C200.989 44.7635 200.511 44.7749 199.873 44.7749H187.57V62.5117H182.204V16.0338H201.889ZM201.787 40.1613C203.678 40.1613 205.375 39.7512 206.879 38.931C208.405 38.1108 209.601 36.9716 210.467 35.5135C211.333 34.0554 211.766 32.3922 211.766 30.524C211.766 28.6785 211.321 27.0267 210.433 25.5686C209.567 24.1105 208.36 22.9713 206.81 22.1511C205.284 21.3081 203.575 20.8866 201.684 20.8866H187.57V40.1613H201.787ZM245.435 16.0338C250.288 16.0338 254.56 17.0021 258.251 18.9386C261.964 20.8752 264.835 23.5978 266.863 27.1065C268.89 30.6151 269.904 34.6591 269.904 39.2386C269.904 43.8408 268.89 47.9076 266.863 51.439C264.858 54.9477 262.01 57.6703 258.319 59.6068C254.651 61.5434 250.402 62.5117 245.572 62.5117H228.723V16.0338H245.435ZM245.435 57.6589C249.308 57.6589 252.68 56.907 255.551 55.4033C258.421 53.8996 260.62 51.7808 262.146 49.0468C263.696 46.29 264.47 43.0662 264.47 39.3753C264.47 35.6844 263.696 32.4378 262.146 29.6354C260.597 26.8331 258.376 24.6687 255.482 23.1422C252.589 21.6157 249.194 20.8524 245.298 20.8524H234.021V57.6589H245.435ZM281.12 16.0338H311.775V20.955H286.486V36.5388H308.495V41.1524H286.486V57.6247H312.083V62.5117H281.12V16.0338ZM340.933 36.5046L360.55 62.5117H354.091L337.413 40.4689L328.289 51.6441V62.5117H322.923V16.0338H328.289V44.4673L351.528 16.0338H357.884L340.933 36.5046Z" fill="white"/>
</svg>
