<svg width="114" height="25" viewBox="0 0 114 25" xmlns="http://www.w3.org/2000/svg">
    <path d="M94.0783 11.0937C94.7175 6.75479 98.2665 3.43443 102.549 3.43443C106.832 3.43443 110.38 6.75479 111.02 11.0937H94.0783ZM111.02 13.9063H112.968H113.92C113.971 13.4447 114 12.9759 114 12.5C114 5.81321 108.873 0.392738 102.549 0.392738C96.2249 0.392738 91.098 5.81321 91.098 12.5C91.098 19.1868 96.2249 24.6077 102.549 24.6077C107.215 24.6077 111.226 21.6555 113.01 17.4226H109.742C108.214 19.9141 105.566 21.5656 102.549 21.5656C98.2665 21.5656 94.7175 18.2452 94.0783 13.9063H102.804H111.02ZM58.8927 21.167H64.8522V24.0253H58.8927H56.1894H50.2304V21.167H56.1894V4.77232C56.1894 4.25345 55.7918 3.83298 55.301 3.83298H50.2304V0.974686H55.301C57.2847 0.974686 58.8927 2.6749 58.8927 4.77232V21.167ZM86.131 9.21274V24.0253H83.4277V9.21274C83.4277 5.92011 80.903 3.25103 77.7889 3.25103C74.6753 3.25103 72.1506 5.92011 72.1506 9.21274V24.0253H69.4473V9.21274C69.4473 4.34157 73.1819 0.392738 77.7889 0.392738C82.3963 0.392738 86.131 4.34157 86.131 9.21274ZM42.22 0.974686H44.9233V15.7873C44.9233 20.6589 41.1886 24.6077 36.5817 24.6077C31.9747 24.6077 28.24 20.6589 28.24 15.7873V0.974686H30.9433V15.7873C30.9433 19.0799 33.4676 21.7494 36.5817 21.7494C39.6957 21.7494 42.22 19.0799 42.22 15.7873V0.974686ZM18.8383 17.9607L14.1619 13.0162L6.65748 5.08141C8.10261 3.95465 9.88829 3.28771 11.8216 3.28771C16.6338 3.28771 20.5347 7.41233 20.5347 12.5C20.5347 14.5442 19.9039 16.4323 18.8383 17.9607ZM11.8216 21.7123C7.00988 21.7123 3.10897 17.5881 3.10897 12.5C3.10897 10.4558 3.73973 8.56772 4.80538 7.03972L16.9862 19.9186C15.541 21.0454 13.7554 21.7123 11.8216 21.7123ZM21.8326 21.1268L20.7898 20.0242C22.3428 17.9576 23.2726 15.3444 23.2726 12.5C23.2726 5.81321 18.1462 0.392738 11.8216 0.392738C9.13188 0.392738 6.66002 1.37592 4.70597 3.01798L6.22978 4.62918L1.85167 1.90735e-06L0 1.95831L2.85387 4.97585C1.30087 7.04241 0.371011 9.65557 0.371011 12.5C0.371011 19.1868 5.49749 24.6077 11.8216 24.6077C14.5118 24.6077 16.9832 23.6241 18.9377 21.9825L21.7915 25L23.6436 23.0417L21.8326 21.1268Z" fill="#FFFFFF" />
</svg>
