<svg width="27" height="27" viewBox="0 0 27 27" fill="none" xmlns="http://www.w3.org/2000/svg">
<g clip-path="url(#clip0_221_190)">
<path d="M13.0401 23.0882C12.9717 23.362 12.8137 23.605 12.5913 23.7787C12.3688 23.9525 12.0947 24.0468 11.8125 24.0469C11.7087 24.0466 11.6053 24.0339 11.5045 24.0089L8.12952 23.1652C7.98897 23.1309 7.85549 23.0723 7.73506 22.9922L5.20382 21.3047C4.92409 21.1184 4.72984 20.8286 4.66377 20.4991C4.59771 20.1696 4.66526 19.8273 4.85155 19.5476C5.03784 19.2679 5.32763 19.0736 5.65715 19.0075C5.98667 18.9415 6.32894 19.009 6.60866 19.1953L8.95745 20.7615L12.1215 21.5525C12.4469 21.6344 12.7265 21.8422 12.8988 22.1302C13.071 22.4181 13.1219 22.7627 13.0401 23.0882ZM26.8945 12.9463C26.8079 13.2091 26.67 13.4521 26.489 13.6613C26.308 13.8706 26.0874 14.0419 25.8398 14.1655L23.4278 15.3721L17.7767 21.1444C17.6222 21.2991 17.4302 21.4111 17.2195 21.4695C17.0088 21.5279 16.7865 21.5307 16.5744 21.4777L9.8244 19.7902C9.66604 19.7502 9.51677 19.6804 9.3846 19.5845L3.69139 15.428L1.16647 14.1623C0.91824 14.039 0.696757 13.8679 0.514685 13.6589C0.332613 13.4499 0.193523 13.207 0.105367 12.9442C0.0172104 12.6814 -0.0182833 12.4038 0.000914911 12.1273C0.0201131 11.8508 0.0936266 11.5807 0.217253 11.3326L2.84764 6.09504C3.09791 5.59482 3.53661 5.21448 4.06727 5.03766C4.59792 4.86084 5.17708 4.90202 5.67737 5.15215L7.84897 6.23953L13.1446 4.69125C13.3767 4.62375 13.6233 4.62375 13.8554 4.69125L19.151 6.23953L21.3268 5.15109C21.8268 4.90237 22.405 4.86207 22.9347 5.03902C23.4644 5.21597 23.9022 5.59573 24.1523 6.09504L26.7732 11.3358C26.899 11.5828 26.9745 11.8524 26.9953 12.1289C27.0162 12.4053 26.9819 12.6832 26.8945 12.9463ZM21.1254 14.1328L18.4887 8.85938H15.7001L11.6712 12.767C13.3333 13.5327 14.9576 12.787 15.9764 11.7598C16.1964 11.5386 16.4903 11.4065 16.8018 11.3888C17.1132 11.3711 17.4202 11.469 17.6639 11.6638L20.9608 14.3005L21.1254 14.1328ZM2.67573 12.0899L3.78632 12.6457L6.02964 8.16012L4.918 7.6043L2.67573 12.0899ZM19.1953 16.1367L16.9066 14.2984C14.7456 15.911 12.0709 16.0692 9.84022 14.6412C9.57404 14.4715 9.34934 14.2443 9.18266 13.9762C9.01599 13.7082 8.91159 13.4061 8.87718 13.0924C8.84277 12.7786 8.87921 12.4611 8.98382 12.1633C9.08844 11.8655 9.25855 11.595 9.48163 11.3716L9.49428 11.359L13.6919 7.27734L13.5 7.22461L8.61257 8.65371L5.96319 13.9525L10.6724 17.395L16.4869 18.8483L19.1953 16.1367ZM24.32 12.0909L22.082 7.6043L20.9703 8.16012L23.2137 12.6457L24.32 12.0909Z" fill="#F8F8F8"/>
</g>
<defs>
<clipPath id="clip0_221_190">
<rect width="27" height="27" fill="white"/>
</clipPath>
</defs>
</svg>
