<svg width="60" height="60" viewBox="0 0 60 60" fill="none" xmlns="http://www.w3.org/2000/svg">
<g clip-path="url(#clip0_221_190)">
<path d="M28.9782 51.307C28.8261 51.9155 28.475 52.4556 27.9807 52.8417C27.4864 53.2277 26.8772 53.4374 26.25 53.4375C26.0194 53.4369 25.7896 53.4086 25.5657 53.3531L18.0657 51.4781C17.7533 51.402 17.4567 51.2719 17.1891 51.0938L11.5641 47.3438C10.9425 46.9298 10.5108 46.2858 10.364 45.5535C10.2172 44.8213 10.3673 44.0607 10.7813 43.4391C11.1953 42.8175 11.8392 42.3858 12.5715 42.239C13.3038 42.0922 14.0644 42.2423 14.686 42.6562L19.9055 46.1367L26.9368 47.8945C27.6599 48.0765 28.2812 48.5382 28.664 49.1781C29.0468 49.8181 29.1598 50.5838 28.9782 51.307ZM59.7657 28.7695C59.5731 29.3534 59.2668 29.8935 58.8646 30.3585C58.4623 30.8235 57.972 31.2043 57.4219 31.4789L52.0618 34.1602L39.5039 46.9875C39.1605 47.3312 38.7339 47.5801 38.2656 47.7099C37.7974 47.8397 37.3035 47.846 36.8321 47.7281L21.8321 43.9781C21.4802 43.8894 21.1484 43.7343 20.8547 43.5211L8.20316 34.2844L2.59223 31.4719C2.0406 31.1977 1.54842 30.8176 1.14381 30.3531C0.739208 29.8886 0.430119 29.3489 0.234216 28.7649C0.0383131 28.1809 -0.0405617 27.564 0.00210095 26.9495C0.0447636 26.335 0.208127 25.7349 0.482851 25.1836L6.32816 13.5445C6.88432 12.4329 7.85921 11.5877 9.03844 11.1948C10.2177 10.8019 11.5047 10.8934 12.6164 11.4492L17.4422 13.8656L29.2102 10.425C29.7261 10.275 30.274 10.275 30.7899 10.425L42.5579 13.8656L47.393 11.4469C48.5041 10.8942 49.789 10.8046 50.9661 11.1978C52.1431 11.591 53.1162 12.435 53.6719 13.5445L59.4961 25.1906C59.7757 25.7396 59.9434 26.3387 59.9897 26.9531C60.036 27.5674 59.9598 28.1848 59.7657 28.7695ZM46.9454 31.4063L41.086 19.6875H34.8891L25.936 28.3711C29.6297 30.0727 33.2391 28.4156 35.5032 26.1328C35.9921 25.6414 36.6452 25.3478 37.3373 25.3084C38.0294 25.2691 38.7117 25.4867 39.2532 25.9195L46.5797 31.7789L46.9454 31.4063ZM5.94613 26.8664L8.4141 28.1016L13.3993 18.1336L10.9289 16.8984L5.94613 26.8664ZM42.6563 35.8594L37.5704 31.7742C32.768 35.3578 26.8243 35.7094 21.8672 32.5359C21.2757 32.1589 20.7764 31.654 20.406 31.0583C20.0356 30.4626 19.8036 29.7914 19.7271 29.0941C19.6507 28.3969 19.7316 27.6914 19.9641 27.0296C20.1966 26.3678 20.5746 25.7666 21.0704 25.2703L21.0985 25.2422L30.4266 16.1719L30 16.0547L19.1391 19.2305L13.2516 31.0055L23.7164 38.6555L36.6375 41.8852L42.6563 35.8594ZM54.0446 26.8688L49.0711 16.8984L46.6008 18.1336L51.586 28.1016L54.0446 26.8688Z" fill="#F8F8F8"/>
</g>
<defs>
<clipPath id="clip0_221_190">
<rect width="60" height="60" fill="white"/>
</clipPath>
</defs>
</svg>
