<?xml version="1.0" standalone="no"?>
<!DOCTYPE svg PUBLIC "-//W3C//DTD SVG 20010904//EN"
 "http://www.w3.org/TR/2001/REC-SVG-20010904/DTD/svg10.dtd">
<svg version="1.0" xmlns="http://www.w3.org/2000/svg"
 width="323.000000pt" height="160.000000pt" viewBox="0 0 323.000000 160.000000"
 preserveAspectRatio="xMidYMid meet">

<g transform="translate(0.000000,160.000000) scale(0.100000,-0.100000)"
fill="#000000" stroke="none">
<path d="M666 1495 c-21 -7 -46 -11 -55 -8 -13 4 -13 3 -2 -5 11 -8 11 -10 0
-14 -8 -3 -11 -8 -8 -12 8 -8 65 15 94 38 24 19 21 19 -29 1z"/>
<path d="M750 1503 c-24 -9 -50 -35 -44 -45 7 -11 43 0 67 20 30 26 18 40 -23
25z"/>
<path d="M833 1503 c-21 -8 -15 -41 8 -48 30 -10 57 18 39 39 -13 16 -25 18
-47 9z"/>
<path d="M920 1495 c0 -17 38 -45 62 -45 36 0 15 30 -35 49 -21 8 -27 8 -27
-4z"/>
<path d="M1000 1489 c21 -14 88 -49 95 -49 18 0 -2 19 -40 38 -47 23 -82 30
-55 11z"/>
<path d="M540 1460 c-8 -5 -10 -10 -5 -10 6 0 17 5 25 10 8 5 11 10 5 10 -5 0
-17 -5 -25 -10z"/>
<path d="M1130 1455 c14 -8 30 -14 35 -14 6 0 -1 6 -15 14 -14 8 -29 14 -35
14 -5 0 1 -6 15 -14z"/>
<path d="M604 1415 c-17 -7 -41 -25 -53 -41 -19 -24 -20 -29 -7 -42 12 -13 20
-13 46 -2 32 13 70 54 70 75 0 20 -23 24 -56 10z"/>
<path d="M729 1400 c-25 -24 -28 -33 -20 -49 20 -36 78 -34 103 3 14 21 8 55
-11 66 -30 15 -40 13 -72 -20z"/>
<path d="M462 1390 c-23 -16 -46 -39 -52 -50 -9 -17 -8 -20 10 -20 20 0 110
74 110 91 0 17 -27 9 -68 -21z"/>
<path d="M892 1408 c-29 -29 8 -88 54 -88 29 0 55 26 47 48 -17 47 -72 69
-101 40z"/>
<path d="M1045 1410 c-16 -27 30 -83 77 -95 56 -14 44 49 -15 85 -36 22 -53
25 -62 10z"/>
<path d="M404 1381 c-21 -15 -48 -39 -59 -51 l-20 -24 30 22 c43 31 101 81 94
82 -3 0 -24 -13 -45 -29z"/>
<path d="M1170 1396 c0 -18 85 -96 105 -96 8 0 15 6 15 13 0 22 -88 97 -114
97 -3 0 -6 -6 -6 -14z"/>
<path d="M1295 1351 c22 -23 49 -47 60 -53 27 -15 -30 47 -70 75 -26 17 -24
14 10 -22z"/>
<path d="M610 1282 c-19 -9 -41 -30 -48 -45 -27 -56 31 -97 91 -65 51 26 63
85 25 112 -28 20 -26 20 -68 -2z"/>
<path d="M412 1265 c-39 -33 -55 -77 -37 -102 13 -17 15 -17 51 2 21 11 47 35
57 52 38 66 -11 98 -71 48z"/>
<path d="M791 1264 c-12 -15 -21 -32 -21 -39 0 -7 9 -24 21 -39 41 -52 129
-27 129 37 0 64 -89 92 -129 41z"/>
<path d="M1018 1278 c-47 -37 -4 -128 60 -128 32 0 62 27 62 54 0 24 -63 86
-87 86 -11 0 -26 -6 -35 -12z"/>
<path d="M290 1244 c-52 -60 -64 -117 -19 -93 22 11 79 95 79 116 0 24 -28 13
-60 -23z"/>
<path d="M1200 1265 c-9 -11 -9 -22 0 -49 23 -72 111 -104 118 -43 3 22 -6 37
-36 67 -42 43 -62 49 -82 25z"/>
<path d="M1345 1260 c-16 -25 64 -140 96 -140 18 0 8 37 -20 82 -32 50 -65 75
-76 58z"/>
<path d="M233 1208 c-15 -20 -25 -38 -20 -38 3 0 12 11 21 25 17 26 16 35 -1
13z"/>
<path d="M447 1119 c-41 -24 -60 -104 -31 -133 51 -51 155 21 137 95 -10 45
-63 63 -106 38z"/>
<path d="M677 1119 c-29 -17 -46 -67 -35 -101 29 -83 158 -53 158 37 0 45 -29
75 -72 75 -18 0 -41 -5 -51 -11z"/>
<path d="M268 1103 c-34 -37 -51 -124 -27 -138 39 -25 103 54 97 118 -2 26 -8
33 -29 35 -15 2 -32 -4 -41 -15z"/>
<path d="M1149 1099 c-30 -30 -20 -85 21 -121 36 -33 63 -35 90 -8 31 31 26
76 -14 116 -39 39 -67 43 -97 13z"/>
<path d="M181 1097 c-28 -34 -53 -147 -32 -147 10 0 46 82 56 128 7 33 -4 42
-24 19z"/>
<path d="M528 901 c-42 -38 -44 -89 -6 -128 70 -69 179 18 134 106 -30 58 -79
66 -128 22z"/>
<path d="M820 923 c-76 -27 -87 -133 -18 -169 59 -31 128 13 128 82 0 55 -62
104 -110 87z"/>
<path d="M301 894 c-58 -74 21 -204 82 -136 34 37 41 78 20 119 -24 50 -70 58
-102 17z"/>
<path d="M162 885 c-15 -32 -16 -110 -2 -136 26 -48 60 -1 60 84 0 74 -34 104
-58 52z"/>
<path d="M105 825 c-4 -39 -2 -71 4 -82 8 -14 10 2 11 65 0 45 -2 82 -4 82 -2
0 -7 -29 -11 -65z"/>
<path d="M1120 740 l0 -150 105 0 c105 0 105 0 105 25 0 23 -3 24 -77 27 l-78
3 0 35 0 35 58 3 c53 3 57 5 57 27 0 24 -3 25 -61 25 l-60 0 3 33 3 32 78 3
c74 3 77 4 77 27 0 25 0 25 -105 25 l-105 0 0 -150z"/>
<path d="M1450 740 l0 -150 94 0 c136 0 141 5 141 148 0 149 -3 152 -137 152
l-98 0 0 -150z m170 81 c5 -11 10 -49 10 -85 0 -80 -14 -98 -74 -94 l-41 3 -3
98 -3 97 50 0 c39 0 53 -4 61 -19z"/>
<path d="M1820 752 c0 -94 4 -142 12 -150 16 -16 190 -16 206 0 8 8 12 56 12
150 l0 138 -30 0 -29 0 -3 -122 -3 -123 -50 0 -50 0 -3 123 -3 122 -29 0 -30
0 0 -138z"/>
<path d="M2190 740 l0 -150 25 0 c24 0 25 3 25 60 l0 60 60 0 60 0 0 -60 0
-60 30 0 30 0 0 150 0 150 -30 0 -30 0 0 -60 0 -61 -57 3 -58 3 -3 58 c-3 53
-5 57 -27 57 l-25 0 0 -150z"/>
<path d="M2550 756 c0 -168 -2 -166 120 -166 122 0 120 -2 120 166 l0 134 -30
0 -29 0 -3 -122 -3 -123 -34 -3 c-19 -2 -44 -1 -57 2 -24 6 -24 9 -24 126 l0
120 -30 0 -30 0 0 -134z"/>
<path d="M2920 740 l0 -150 104 0 c97 0 106 2 120 22 20 28 20 74 2 110 -8 16
-10 28 -4 30 15 5 21 80 9 111 l-11 27 -110 0 -110 0 0 -150z m175 65 c0 -30
-1 -30 -57 -33 l-58 -3 0 36 0 36 58 -3 c56 -3 57 -3 57 -33z m-1 -107 c20
-32 -4 -53 -60 -53 -44 0 -49 3 -52 23 -6 44 4 53 54 50 31 -2 51 -9 58 -20z"/>
<path d="M422 674 c-32 -22 -31 -92 3 -128 47 -51 125 -25 125 42 0 35 -25 77
-55 90 -34 16 -46 15 -73 -4z"/>
<path d="M656 667 c-34 -34 -34 -76 0 -116 51 -61 139 -30 139 48 0 50 -26 79
-77 88 -30 4 -41 1 -62 -20z"/>
<path d="M240 665 c-32 -39 14 -155 62 -155 44 0 42 100 -2 148 -24 26 -43 28
-60 7z"/>
<path d="M137 658 c-12 -32 30 -158 53 -158 24 0 3 112 -29 151 -15 18 -19 19
-24 7z"/>
<path d="M1157 480 c-21 -16 -27 -30 -27 -59 0 -55 23 -81 71 -81 49 0 56 27
8 32 -41 4 -57 28 -43 65 8 23 16 28 42 28 24 0 32 4 30 15 -5 24 -51 23 -81
0z"/>
<path d="M1353 474 c-22 -22 -25 -32 -20 -67 6 -47 28 -67 71 -67 37 0 49 7
65 37 18 35 13 72 -14 98 -31 32 -69 32 -102 -1z m82 -54 c0 -43 -1 -45 -30
-45 -27 0 -30 4 -33 33 -5 50 4 64 35 60 26 -3 28 -6 28 -48z"/>
<path d="M1577 493 c-4 -3 -7 -39 -7 -80 0 -58 3 -73 15 -73 11 0 15 13 16 58
l1 57 17 -55 c23 -76 43 -77 69 -3 l20 58 1 -57 c1 -45 4 -58 16 -58 12 0 15
16 15 81 0 78 -1 80 -22 77 -18 -2 -28 -16 -44 -61 l-20 -59 -19 61 c-13 43
-23 61 -35 61 -9 0 -20 -3 -23 -7z"/>
<path d="M1847 493 c-4 -3 -7 -39 -7 -80 0 -58 3 -73 15 -73 11 0 15 13 16 58
l1 57 17 -55 c23 -76 43 -77 69 -3 l20 58 1 -57 c1 -45 4 -58 16 -58 12 0 15
16 15 81 0 78 -1 80 -22 77 -18 -2 -28 -16 -44 -61 l-20 -59 -19 61 c-13 43
-23 61 -35 61 -9 0 -20 -3 -23 -7z"/>
<path d="M2110 437 c0 -73 17 -97 67 -97 46 0 63 26 63 98 0 48 -3 62 -15 62
-11 0 -15 -12 -15 -49 0 -64 -7 -81 -35 -81 -28 0 -35 17 -35 81 0 37 -4 49
-15 49 -12 0 -15 -14 -15 -63z"/>
<path d="M2340 420 c0 -64 3 -80 15 -80 12 0 15 13 15 58 l0 57 33 -57 c24
-44 37 -58 54 -58 22 0 23 4 23 80 0 63 -3 80 -15 80 -10 0 -15 -15 -17 -57
l-3 -58 -33 58 c-22 39 -38 57 -52 57 -18 0 -20 -7 -20 -80z"/>
<path d="M2580 420 c0 -64 3 -80 15 -80 12 0 15 16 15 80 0 64 -3 80 -15 80
-12 0 -15 -16 -15 -80z"/>
<path d="M2700 485 c0 -8 9 -15 20 -15 18 0 20 -7 20 -65 0 -50 3 -65 15 -65
10 0 15 16 17 63 3 56 5 62 26 65 44 7 16 27 -41 30 -46 2 -57 0 -57 -13z"/>
<path d="M2890 495 c0 -3 11 -28 25 -55 14 -27 25 -61 25 -75 0 -16 6 -25 15
-25 10 0 15 10 15 33 0 17 11 52 25 76 29 51 29 51 10 51 -8 0 -21 -13 -30
-30 -9 -16 -18 -30 -20 -30 -2 0 -11 14 -20 30 -9 17 -22 30 -30 30 -8 0 -15
-2 -15 -5z"/>
<path d="M371 466 c-19 -23 -5 -64 34 -103 58 -58 106 -28 75 47 -23 55 -84
86 -109 56z"/>
<path d="M244 456 c-12 -30 64 -136 97 -136 25 0 -6 76 -49 123 -29 30 -40 34
-48 13z"/>
<path d="M210 414 c12 -23 33 -55 47 -70 l24 -29 -21 41 c-12 23 -33 55 -47
70 l-24 29 21 -41z"/>
<path d="M537 304 c-28 -29 41 -119 86 -112 30 4 26 53 -5 84 -25 24 -69 40
-81 28z"/>
<path d="M706 294 c-23 -22 -20 -51 9 -79 42 -43 85 -27 85 31 0 53 -60 83
-94 48z"/>
<path d="M400 287 c0 -21 28 -54 64 -76 69 -43 76 -18 12 45 -42 43 -76 57
-76 31z"/>
<path d="M355 249 c22 -22 54 -47 70 -56 24 -11 18 -3 -27 41 -64 64 -103 77
-43 15z"/>
<path d="M580 162 c0 -21 104 -82 116 -69 8 8 -92 77 -110 77 -3 0 -6 -4 -6
-8z"/>
<path d="M685 160 c-9 -14 11 -38 46 -56 32 -16 45 -5 29 26 -18 33 -62 51
-75 30z"/>
<path d="M813 163 c-18 -7 -16 -48 2 -63 28 -23 66 28 39 54 -16 17 -21 18
-41 9z"/>
<path d="M516 149 c6 -11 107 -59 122 -59 9 0 -111 69 -121 70 -5 0 -5 -5 -1
-11z"/>
<path d="M910 138 c-23 -25 -26 -48 -6 -48 20 0 77 50 70 61 -10 16 -43 10
-64 -13z"/>
<path d="M1025 142 c-39 -24 -63 -52 -45 -52 19 0 100 49 100 60 0 15 -22 12
-55 -8z"/>
</g>
</svg>
